nColumns=19
nRows=40
DataType=double
version=3
OpenSimVersion=4.1
endheader
time	ground_force_calcn_r_vx	ground_force_calcn_r_vy	ground_force_calcn_r_vz	ground_force_calcn_r_px	ground_force_calcn_r_py	ground_force_calcn_r_pz	ground_force_calcn_r_mx	ground_force_calcn_r_my	ground_force_calcn_r_mz	ground_force_calcn_l_vx	ground_force_calcn_l_vy	ground_force_calcn_l_vz	ground_force_calcn_l_px	ground_force_calcn_l_py	ground_force_calcn_l_pz	ground_force_calcn_l_mx	ground_force_calcn_l_my	ground_force_calcn_l_mz
0.133333	0	0	0	0	0	0	0	0	0	0	0	0	0	0	0	0	0	0
0.141667	-18.0337	140.93	-4.96869	0.982928	0	-0.30803	-0.536292	4.19104	-0.14776	0	0	0	0	0	0	0	0	0
0.15	-14.1714	284.587	-4.93769	1.00788	0	-0.309729	-0.184848	3.71206	-0.0644057	0	0	0	0	0	0	0	0	0
0.158333	-4.83323	494.101	1.28197	1.0075	0	-0.311898	-0.0240469	2.45832	0.00637823	0	0	0	0	0	0	0	0	0
0.166667	-4.0728	705.132	13.7965	1.00191	0	-0.312653	-0.00428303	0.741528	0.0145086	0	0	0	0	0	0	0	0	0
0.175	-21.9083	843.844	26.8035	0.997348	0	-0.312974	0.0260152	-1.00203	-0.031828	0	0	0	0	0	0	0	0	0
0.183333	-52.5738	899.634	31.8746	0.994359	0	-0.313935	0.136737	-2.33982	-0.0829012	0	0	0	0	0	0	0	0	0
0.191667	-84.6401	919.449	25.8001	0.990437	0	-0.315397	0.276395	-3.00249	-0.084251	0	0	0	0	0	0	0	0	0
0.2	-110.816	949.901	14.0901	0.984104	0	-0.316079	0.346092	-2.96665	-0.0440051	0	0	0	0	0	0	0	0	0
0.208333	-127.268	1007.28	5.13976	0.976531	0	-0.31516	0.302835	-2.39682	-0.0122301	0	0	0	0	0	0	0	0	0
0.216667	-133.696	1084.25	1.61362	0.968094	0	-0.313435	0.186421	-1.51183	-0.00224997	0	0	0	0	0	0	0	0	0
0.225	-130.574	1164.27	-0.788646	0.957949	0	-0.3121	0.0556438	-0.496153	0.00033608	0	0	0	0	0	0	0	0	0
0.233333	-119.685	1232.74	-6.60197	0.946488	0	-0.311473	-0.050422	0.519338	-0.00278134	0	0	0	0	0	0	0	0	0
0.241667	-107.432	1285.23	-15.1226	0.935113	0	-0.310988	-0.120864	1.44592	-0.0170133	0	0	0	0	0	0	0	0	0
0.25	-98.4663	1326.08	-22.5251	0.924348	0	-0.309894	-0.165828	2.23327	-0.0379348	0	0	0	0	0	0	0	0	0
0.258333	-91.3712	1359.71	-27.3122	0.913667	0	-0.308159	-0.193219	2.87532	-0.057756	0	0	0	0	0	0	0	0	0
0.266667	-83.7748	1386.06	-31.364	0.902847	0	-0.306512	-0.205456	3.39927	-0.0769195	0	0	0	0	0	0	0	0	0
0.275	-75.5739	1403.37	-36.2162	0.892082	0	-0.305421	-0.206666	3.83769	-0.0990373	0	0	0	0	0	0	0	0	0
0.283333	-66.8368	1413.05	-40.7615	0.881181	0	-0.304551	-0.198912	4.20538	-0.12131	0	0	0	0	0	0	0	0	0
0.291667	-55.8717	1418.79	-43.2383	0.869734	0	-0.30345	-0.177001	4.4947	-0.136978	0	0	0	0	0	0	0	0	0
0.3	-42.2097	1420.58	-43.6457	0.857936	0	-0.302262	-0.139128	4.68241	-0.143862	0	0	0	0	0	0	0	0	0
0.308333	-27.68	1414.01	-43.0437	0.846407	0	-0.301332	-0.0927402	4.73755	-0.144215	0	0	0	0	0	0	0	0	0
0.316667	-14.1777	1395.32	-41.5855	0.835377	0	-0.300718	-0.0470178	4.62732	-0.137911	0	0	0	0	0	0	0	0	0
0.325	-2.04257	1364.3	-38.4096	0.824543	0	-0.300291	-0.00647412	4.32429	-0.121743	0	0	0	0	0	0	0	0	0
0.333333	9.21081	1322.08	-32.9855	0.813637	0	-0.299996	0.0265928	3.81702	-0.0952335	0	0	0	0	0	0	0	0	0
0.341667	20.2247	1269.83	-25.7574	0.802694	0	-0.299936	0.0496835	3.11945	-0.0632751	0	0	0	0	0	0	0	0	0
0.35	32.6051	1209.77	-17.5574	0.791526	0	-0.300212	0.0612599	2.27298	-0.0329876	0	0	0	0	0	0	0	0	0
0.358333	47.5766	1144.12	-8.89422	0.779653	0	-0.300791	0.0557877	1.34158	-0.0104293	0	0	0	0	0	0	0	0	0
0.366667	63.8597	1073.93	0.002412	0.767108	0	-0.301519	0.0240115	0.403803	9.06923e-07	0	0	0	0	0	0	0	0	0
0.375	78.8115	999.349	8.66492	0.754294	0	-0.302248	-0.0360704	-0.457381	-0.00396575	0	0	0	0	0	0	0	0	0
0.383333	90.9391	920.203	16.2094	0.741318	0	-0.30297	-0.115354	-1.16726	-0.0205613	0	0	0	0	0	0	0	0	0
0.391667	99.8912	837.016	21.8034	0.728071	0	-0.303781	-0.199553	-1.67211	-0.0435568	0	0	0	0	0	0	0	0	0
0.4	105.228	751.18	25.2409	0.714498	0	-0.304674	-0.27297	-1.94862	-0.0654771	0	0	0	0	0	0	0	0	0
0.408333	106.714	664.914	26.9013	0.700692	0	-0.305367	-0.321861	-2.00544	-0.0811368	0	0	0	0	0	0	0	0	0
0.416667	104.919	580.487	27.1837	0.686835	0	-0.305431	-0.339172	-1.87655	-0.087877	0	0	0	0	0	0	0	0	0
0.425	100.463	498.569	26.1848	0.673312	0	-0.304774	-0.324783	-1.6118	-0.0846517	0	0	0	0	0	0	0	0	0
0.433333	93.4509	419.385	23.96	0.660689	0	-0.303739	-0.28261	-1.26829	-0.0724588	0	0	0	0	0	0	0	0	0
0.441667	84.2424	344.482	20.91	0.649113	0	-0.302529	-0.22027	-0.900723	-0.0546738	0	0	0	0	0	0	0	0	0
0.45	73.658	275.792	17.6862	0.638472	0	-0.300832	-0.14748	-0.552199	-0.0354118	0	0	0	0	0	0	0	0	0
0.458333	61.9339	214.508	14.6765	0.62936	0	-0.298133	-0.0718365	-0.248805	-0.0170231	0	0	0	0	0	0	0	0	0
